<svg xmlns:xlink="http://www.w3.org/1999/xlink" xmlns="http://www.w3.org/2000/svg" version="1.1"
width="1824" height="640" viewBox="-25 -25 1874 690">
<line x1="0" y1="0" x2="1824" y2="0" style="stroke:#969696;stroke-width:1"/>
<line x1="0" y1="80" x2="1824" y2="80" style="stroke:#969696;stroke-width:1"/>
<line x1="0" y1="160" x2="1824" y2="160" style="stroke:#969696;stroke-width:1"/>
<line x1="0" y1="240" x2="1824" y2="240" style="stroke:#969696;stroke-width:1"/>
<line x1="0" y1="320" x2="1824" y2="320" style="stroke:#969696;stroke-width:1"/>
<line x1="0" y1="400" x2="1824" y2="400" style="stroke:#969696;stroke-width:1"/>
<line x1="0" y1="480" x2="1824" y2="480" style="stroke:#969696;stroke-width:1"/>
<line x1="0" y1="560" x2="1824" y2="560" style="stroke:#969696;stroke-width:1"/>
<line x1="0" y1="640" x2="1824" y2="640" style="stroke:#969696;stroke-width:1"/>
<line x1="0" y1="0" x2="0" y2="640" style="stroke:#969696;stroke-width:1"/>
<line x1="228" y1="0" x2="228" y2="640" style="stroke:#969696;stroke-width:1"/>
<line x1="456" y1="0" x2="456" y2="640" style="stroke:#969696;stroke-width:1"/>
<line x1="684" y1="0" x2="684" y2="640" style="stroke:#969696;stroke-width:1"/>
<line x1="912" y1="0" x2="912" y2="640" style="stroke:#969696;stroke-width:1"/>
<line x1="1140" y1="0" x2="1140" y2="640" style="stroke:#969696;stroke-width:1"/>
<line x1="1368" y1="0" x2="1368" y2="640" style="stroke:#969696;stroke-width:1"/>
<line x1="1596" y1="0" x2="1596" y2="640" style="stroke:#969696;stroke-width:1"/>
<line x1="1824" y1="0" x2="1824" y2="640" style="stroke:#969696;stroke-width:1"/>
<circle cx="912" cy="320" r="20" style="stroke:#101010;stroke-width:4;fill:#FFFFFF"/>
<text x="912" y="320" dy="10" style="text-anchor:middle;font-weight:bold;font-size:20">0</text>
<circle cx="456" cy="0" r="20" style="stroke:#4285F4;stroke-width:4;fill:#FFFFFF"/>
<text x="456" y="0" dy="10" style="text-anchor:middle;font-weight:bold;font-size:20">1</text>
<circle cx="1824" cy="0" r="20" style="stroke:#4285F4;stroke-width:4;fill:#FFFFFF"/>
<text x="1824" y="0" dy="10" style="text-anchor:middle;font-weight:bold;font-size:20">2</text>
<circle cx="0" cy="80" r="20" style="stroke:#4285F4;stroke-width:4;fill:#FFFFFF"/>
<text x="0" y="80" dy="10" style="text-anchor:middle;font-weight:bold;font-size:20">3</text>
<circle cx="228" cy="80" r="20" style="stroke:#4285F4;stroke-width:4;fill:#FFFFFF"/>
<text x="228" y="80" dy="10" style="text-anchor:middle;font-weight:bold;font-size:20">4</text>
<circle cx="1140" cy="160" r="20" style="stroke:#4285F4;stroke-width:4;fill:#FFFFFF"/>
<text x="1140" y="160" dy="10" style="text-anchor:middle;font-weight:bold;font-size:20">5</text>
<circle cx="1596" cy="160" r="20" style="stroke:#4285F4;stroke-width:4;fill:#FFFFFF"/>
<text x="1596" y="160" dy="10" style="text-anchor:middle;font-weight:bold;font-size:20">6</text>
<circle cx="684" cy="240" r="20" style="stroke:#4285F4;stroke-width:4;fill:#FFFFFF"/>
<text x="684" y="240" dy="10" style="text-anchor:middle;font-weight:bold;font-size:20">7</text>
<circle cx="1368" cy="240" r="20" style="stroke:#4285F4;stroke-width:4;fill:#FFFFFF"/>
<text x="1368" y="240" dy="10" style="text-anchor:middle;font-weight:bold;font-size:20">8</text>
<circle cx="1140" cy="400" r="20" style="stroke:#4285F4;stroke-width:4;fill:#FFFFFF"/>
<text x="1140" y="400" dy="10" style="text-anchor:middle;font-weight:bold;font-size:20">9</text>
<circle cx="1824" cy="400" r="20" style="stroke:#4285F4;stroke-width:4;fill:#FFFFFF"/>
<text x="1824" y="400" dy="10" style="text-anchor:middle;font-weight:bold;font-size:20">10</text>
<circle cx="228" cy="480" r="20" style="stroke:#4285F4;stroke-width:4;fill:#FFFFFF"/>
<text x="228" y="480" dy="10" style="text-anchor:middle;font-weight:bold;font-size:20">11</text>
<circle cx="456" cy="480" r="20" style="stroke:#4285F4;stroke-width:4;fill:#FFFFFF"/>
<text x="456" y="480" dy="10" style="text-anchor:middle;font-weight:bold;font-size:20">12</text>
<circle cx="684" cy="560" r="20" style="stroke:#4285F4;stroke-width:4;fill:#FFFFFF"/>
<text x="684" y="560" dy="10" style="text-anchor:middle;font-weight:bold;font-size:20">13</text>
<circle cx="1368" cy="560" r="20" style="stroke:#4285F4;stroke-width:4;fill:#FFFFFF"/>
<text x="1368" y="560" dy="10" style="text-anchor:middle;font-weight:bold;font-size:20">14</text>
<circle cx="0" cy="640" r="20" style="stroke:#4285F4;stroke-width:4;fill:#FFFFFF"/>
<text x="0" y="640" dy="10" style="text-anchor:middle;font-weight:bold;font-size:20">15</text>
<circle cx="1596" cy="640" r="20" style="stroke:#4285F4;stroke-width:4;fill:#FFFFFF"/>
<text x="1596" y="640" dy="10" style="text-anchor:middle;font-weight:bold;font-size:20">16</text>
</svg>
